<svg width="1165" height="1181" viewBox="0 0 1165 1181" fill="none" xmlns="http://www.w3.org/2000/svg">
<path d="M1165 582.5C1165 656.129 1151.34 726.567 1126.41 791.418C1123.25 799.651 1111.86 799.634 1108.45 791.497L1095.66 760.938C1094.72 758.69 1094.64 756.176 1095.4 753.862C1113.31 699.825 1123 642.044 1123 582C1123 280.453 878.547 36 577 36C275.453 36 31 280.453 31 582C31 647.758 42.6248 710.801 63.9313 769.187C64.8036 771.577 64.7548 774.208 63.7711 776.554L57.007 792.688C53.6018 800.809 42.2279 800.835 39.05 792.621C13.8304 727.439 0 656.584 0 582.5C0 260.794 260.794 0 582.5 0C904.206 0 1165 260.794 1165 582.5Z" fill="white"/>
<path d="M931.017 1035.36C934.105 1040.45 940.936 1041.73 945.59 1038.02C978.834 1011.49 1009.11 981.389 1035.84 948.307C1040.31 942.769 1037.5 934.449 1031.16 931.21C1026.77 928.967 1022.61 926.267 1018.75 923.141C1013.85 919.167 1006.39 919.352 1002.43 924.268C978.68 953.749 951.93 980.71 922.643 1004.69C918.742 1007.88 917.732 1013.46 920.347 1017.77L931.017 1035.36Z" fill="white"/>
<path d="M234.386 1035.68C231.3 1040.77 224.475 1042.05 219.821 1038.35C186.719 1011.98 156.555 982.074 129.896 949.213C125.415 943.689 128.2 935.369 134.525 932.114C136.798 930.944 139.011 929.651 141.152 928.238C145.961 925.066 152.576 925.559 156.25 929.996C180.902 959.769 208.654 986.882 239.011 1010.84C243.023 1014.01 244.101 1019.67 241.45 1024.04L234.386 1035.68Z" fill="white"/>
<path fill-rule="evenodd" clip-rule="evenodd" d="M93.8803 888.367C83.1844 883.882 78.1489 871.576 82.6332 860.88L365.632 185.881C370.117 175.185 382.423 170.149 393.119 174.634C403.815 179.118 408.85 191.424 404.366 202.12L121.367 877.12C116.882 887.816 104.576 892.851 93.8803 888.367Z" fill="white"/>
<path fill-rule="evenodd" clip-rule="evenodd" d="M486.88 888.015C476.184 883.53 471.149 871.224 475.633 860.528L758.632 185.529C763.117 174.833 775.423 169.797 786.119 174.282C796.815 178.766 801.85 191.072 797.366 201.768L514.367 876.768C509.882 887.464 497.576 892.499 486.88 888.015Z" fill="white"/>
<path fill-rule="evenodd" clip-rule="evenodd" d="M772.893 173.628C783.591 169.151 795.894 174.194 800.372 184.893L1082.87 859.892C1087.35 870.591 1082.31 882.894 1071.61 887.372C1060.91 891.849 1048.61 886.806 1044.13 876.107L761.628 201.108C757.151 190.409 762.194 178.106 772.893 173.628Z" fill="white"/>
<path fill-rule="evenodd" clip-rule="evenodd" d="M474 870.5C474 858.902 483.402 849.5 495 849.5H670.5C682.098 849.5 691.5 858.902 691.5 870.5C691.5 882.098 682.098 891.5 670.5 891.5H495C483.402 891.5 474 882.098 474 870.5Z" fill="white"/>
<path fill-rule="evenodd" clip-rule="evenodd" d="M378.72 173.628C389.419 169.151 401.722 174.194 406.2 184.893L688.7 859.892C693.178 870.591 688.135 882.894 677.436 887.372C666.737 891.849 654.434 886.806 649.956 876.107L367.456 201.108C362.978 190.409 368.022 178.106 378.72 173.628Z" fill="white"/>
<path d="M269.603 1093.76C267.504 1092.59 266.15 1091.46 265.54 1090.36C264.963 1089.2 264.848 1088.04 265.197 1086.86C265.546 1085.68 266.027 1084.53 266.641 1083.43L293.164 1035.59C293.811 1034.42 294.496 1033.39 295.221 1032.5C296.003 1031.63 297.039 1031.14 298.327 1031.02C299.616 1030.89 301.339 1031.43 303.496 1032.63C305.712 1033.85 307.079 1035.03 307.598 1036.16C308.175 1037.32 308.277 1038.44 307.902 1039.53C307.586 1040.65 307.104 1041.79 306.458 1042.96L282.65 1085.9L306.614 1099.18C307.605 1099.73 308.489 1100.34 309.267 1101C310.044 1101.66 310.469 1102.54 310.541 1103.65C310.672 1104.79 310.22 1106.29 309.186 1108.16C308.183 1109.96 307.148 1111.14 306.081 1111.7C305.045 1112.19 304.041 1112.28 303.07 1111.97C302.157 1111.69 301.204 1111.28 300.213 1110.73L269.603 1093.76Z" fill="white"/>
<path d="M410.113 1154.23C407.809 1153.56 406.238 1152.76 405.401 1151.82C404.582 1150.82 404.212 1149.7 404.292 1148.47C404.435 1147.27 404.684 1146.05 405.039 1144.84L420.34 1092.32C420.713 1091.04 421.154 1089.89 421.664 1088.85C422.237 1087.84 423.138 1087.13 424.367 1086.72C425.596 1086.32 427.395 1086.46 429.763 1087.15C432.195 1087.86 433.789 1088.71 434.544 1089.69C435.363 1090.69 435.71 1091.77 435.585 1092.91C435.524 1094.07 435.297 1095.33 434.906 1096.67L419.604 1149.19C419.25 1150.4 418.777 1151.55 418.185 1152.63C417.612 1153.64 416.711 1154.35 415.482 1154.76C414.335 1155.12 412.546 1154.94 410.113 1154.23Z" fill="white"/>
<path d="M587.628 1169.49C588.345 1171.19 588.707 1172.65 588.714 1173.85C588.725 1174.98 588.308 1176 587.463 1176.89C586.688 1177.72 585.413 1178.52 583.639 1179.3C580.913 1180.44 578.831 1180.7 577.392 1180.1C575.951 1179.56 574.663 1177.93 573.529 1175.2L555.974 1133.28L534.477 1173.27C533.017 1175.8 531.543 1177.27 530.055 1177.66C528.63 1178.12 526.618 1177.66 524.017 1176.26C522.325 1175.38 521.101 1174.48 520.344 1173.58C519.658 1172.61 519.378 1171.53 519.503 1170.33C519.632 1169.07 520.171 1167.63 521.119 1166.01L550.083 1112.67C550.814 1111.37 551.832 1110.35 553.137 1109.62C554.508 1108.88 555.893 1108.55 557.291 1108.62C558.29 1108.67 559.212 1108.91 560.058 1109.36C560.907 1109.73 561.648 1110.27 562.281 1110.97C562.981 1111.67 563.541 1112.5 563.961 1113.45L587.628 1169.49ZM537.77 1161.32L544.598 1148.74L565.872 1149.79L571.429 1162.98L537.77 1161.32Z" fill="white"/>
<path d="M698.848 1169.01C696.572 1169.53 694.833 1169.54 693.631 1169.06C692.429 1168.58 691.573 1167.82 691.064 1166.77C690.54 1165.66 690.131 1164.45 689.837 1163.15L677.755 1109.6C677.477 1108.36 677.35 1107.19 677.375 1106.09C677.401 1105 677.86 1104 678.754 1103.12C679.698 1102.15 681.374 1101.4 683.78 1100.86C686.121 1100.33 687.813 1100.25 688.855 1100.63C689.883 1100.95 690.865 1101.51 691.8 1102.33L729.109 1135.02L721.164 1099.8C720.886 1098.57 720.759 1097.4 720.784 1096.3C720.875 1095.19 721.367 1094.19 722.261 1093.3C723.14 1092.35 724.75 1091.61 727.091 1091.09C729.497 1090.54 731.269 1090.52 732.406 1091.01C733.608 1091.5 734.438 1092.3 734.897 1093.43C735.407 1094.47 735.801 1095.61 736.08 1096.85L748.096 1150.11C748.374 1151.35 748.516 1152.58 748.52 1153.81C748.509 1154.97 748.064 1156.03 747.185 1156.98C746.306 1157.93 744.663 1158.68 742.257 1159.22C740.436 1159.63 738.969 1159.79 737.855 1159.7C736.806 1159.59 735.821 1159.17 734.9 1158.42L696.94 1125.57L704.687 1159.9C704.965 1161.14 705.107 1162.37 705.111 1163.6C705.1 1164.77 704.655 1165.82 703.776 1166.77C702.897 1167.72 701.254 1168.47 698.848 1169.01Z" fill="white"/>
<path d="M882.194 1104.18C877.85 1106.52 873.386 1107.86 868.803 1108.21C864.22 1108.56 859.73 1108.02 855.332 1106.61C850.993 1105.16 846.973 1102.89 843.27 1099.81C839.626 1096.7 836.572 1092.86 834.107 1088.28C831.768 1083.93 830.396 1079.49 829.99 1074.93C829.552 1070.32 829.999 1065.88 831.331 1061.61C832.632 1057.27 834.779 1053.31 837.773 1049.73C840.735 1046.09 844.431 1043.04 848.86 1040.58C850.68 1039.6 852.712 1038.74 854.956 1037.98C857.259 1037.2 859.598 1036.62 861.973 1036.25C864.348 1035.88 866.537 1035.8 868.542 1036.01C870.127 1036.14 871.597 1036.41 872.951 1036.81C874.333 1037.13 875.34 1037.87 875.972 1039.05C876.347 1039.6 876.593 1040.34 876.71 1041.26C876.796 1042.12 876.78 1043.08 876.663 1044.13C876.45 1045.98 876.033 1047.46 875.409 1048.55C874.845 1049.61 874.122 1050.38 873.242 1050.85C872.772 1051.11 872.136 1051.26 871.332 1051.31C870.528 1051.37 869.379 1051.34 867.885 1051.24C867.167 1051.17 866.14 1051.23 864.803 1051.42C863.466 1051.61 861.985 1051.95 860.36 1052.45C858.762 1052.86 857.199 1053.47 855.673 1054.29C852.327 1056.09 849.744 1058.47 847.925 1061.42C846.073 1064.31 845.096 1067.48 844.992 1070.95C844.946 1074.38 845.827 1077.84 847.633 1081.34C849.588 1084.83 852.087 1087.57 855.13 1089.57C858.141 1091.5 861.41 1092.58 864.937 1092.8C868.522 1092.99 871.958 1092.2 875.245 1090.43C876.419 1089.8 877.562 1089.11 878.672 1088.36C879.842 1087.58 880.921 1086.77 881.91 1085.94C882.926 1085.01 883.793 1084.09 884.511 1083.17L878.727 1072.43L869.306 1077.5C868.308 1078.04 867.351 1078.44 866.434 1078.71C865.576 1078.94 864.662 1078.79 863.691 1078.25C862.779 1077.69 861.817 1076.46 860.806 1074.58C859.795 1072.71 859.348 1071.24 859.465 1070.19C859.551 1069.09 859.957 1068.23 860.684 1067.61C861.47 1066.96 862.333 1066.38 863.272 1065.87L879.913 1056.91C881.882 1055.93 883.451 1055.54 884.62 1055.74C885.79 1055.95 886.76 1056.48 887.532 1057.35C888.273 1058.17 888.943 1059.13 889.544 1060.25L899.878 1079.44C900.637 1080.85 900.781 1082.67 900.312 1084.89C899.81 1087.05 898.745 1089.29 897.115 1091.61C896.117 1093.13 894.85 1094.64 893.315 1096.15C891.807 1097.57 890.134 1098.96 888.296 1100.33C886.458 1101.7 884.424 1102.98 882.194 1104.18Z" fill="white"/>
</svg>
